<?xml version="1.0" encoding="UTF-8"?>
<svg xmlns="http://www.w3.org/2000/svg" xmlns:xlink="http://www.w3.org/1999/xlink" width="1125pt" height="345pt" viewBox="0 0 1125 345">
<defs>
<g>
<g id="glyph-0-0">
<path d="M 9.515625 0 L 44.75 0 L 44.75 -79.59375 L 45.421875 -79.59375 L 76.078125 0 L 97.6875 0 L 128.34375 -79.59375 L 129.015625 -79.59375 L 129.015625 0 L 164.25 0 L 164.25 -137.390625 L 117.59375 -137.390625 L 87.21875 -55.609375 L 86.546875 -55.609375 L 56.171875 -137.390625 L 9.515625 -137.390625 Z M 9.515625 0 "/>
</g>
<g id="glyph-0-1">
<path d="M 69.984375 2.46875 C 106.734375 2.46875 130.640625 -17.8125 130.640625 -48.9375 L 130.640625 -137.390625 L 90.265625 -137.390625 L 90.265625 -52.9375 C 90.265625 -38.46875 83.21875 -30.46875 70.078125 -30.46875 C 56.9375 -30.46875 49.890625 -38.46875 49.890625 -52.9375 L 49.890625 -137.390625 L 9.515625 -137.390625 L 9.515625 -48.9375 C 9.515625 -17.609375 33.703125 2.46875 69.984375 2.46875 Z M 69.984375 2.46875 "/>
</g>
<g id="glyph-0-2">
<path d="M 9.515625 0 L 49.890625 0 L 49.890625 -71.40625 L 50.5625 -71.40625 L 99.5 0 L 132.734375 0 L 132.734375 -137.390625 L 92.359375 -137.390625 L 92.359375 -67.125 L 91.6875 -67.125 L 43.125 -137.390625 L 9.515625 -137.390625 Z M 9.515625 0 "/>
</g>
<g id="glyph-0-3">
<path d="M 74.265625 2.46875 C 112.0625 2.46875 138.25 -22.1875 138.25 -54.375 L 138.25 -55.421875 L 99.59375 -55.421875 L 99.5 -54.375 C 98.171875 -39.890625 88.265625 -30.46875 74.359375 -30.46875 C 57.703125 -30.46875 47.328125 -44.375 47.328125 -68.84375 L 47.328125 -68.9375 C 47.328125 -93.03125 57.703125 -106.921875 74.265625 -106.921875 C 89.21875 -106.921875 98.171875 -96.734375 99.3125 -83.125 L 99.40625 -81.984375 L 138.0625 -81.984375 L 138.0625 -82.84375 C 138.0625 -115.109375 112.453125 -139.875 74.265625 -139.875 C 32.375 -139.875 6.1875 -114.15625 6.1875 -68.84375 L 6.1875 -68.75 C 6.1875 -23.421875 32.09375 2.46875 74.265625 2.46875 Z M 74.265625 2.46875 "/>
</g>
<g id="glyph-0-4">
<path d="M 9.515625 0 L 49.890625 0 L 49.890625 -53.125 L 98.265625 -53.125 L 98.265625 0 L 138.640625 0 L 138.640625 -137.390625 L 98.265625 -137.390625 L 98.265625 -85.125 L 49.890625 -85.125 L 49.890625 -137.390625 L 9.515625 -137.390625 Z M 9.515625 0 "/>
</g>
<g id="glyph-0-5">
<path d="M 9.515625 0 L 103.78125 0 L 103.78125 -32 L 49.890625 -32 L 49.890625 -137.390625 L 9.515625 -137.390625 Z M 9.515625 0 "/>
</g>
<g id="glyph-0-6">
<path d="M 49.796875 0 L 90.171875 0 L 90.171875 -43.515625 L 137.109375 -137.390625 L 94.453125 -137.390625 L 70.359375 -81.6875 L 69.609375 -81.6875 L 45.515625 -137.390625 L 2.859375 -137.390625 L 49.796875 -43.515625 Z M 49.796875 0 "/>
</g>
</g>
</defs>
<rect x="-112.5" y="-34.5" width="1350" height="414" fill="rgb(100%, 96.861267%, 96.076965%)" fill-opacity="1"/>
<g fill="rgb(94.900513%, 41.960144%, 21.960449%)" fill-opacity="1">
<use xlink:href="#glyph-0-0" x="79.746094" y="262.500977"/>
</g>
<g fill="rgb(12.548828%, 10.195923%, 9.411621%)" fill-opacity="1">
<use xlink:href="#glyph-0-1" x="253.515625" y="262.500977"/>
</g>
<g fill="rgb(12.548828%, 10.195923%, 9.411621%)" fill-opacity="1">
<use xlink:href="#glyph-0-2" x="392.111875" y="262.500977"/>
</g>
<g fill="rgb(12.548828%, 10.195923%, 9.411621%)" fill-opacity="1">
<use xlink:href="#glyph-0-3" x="532.997852" y="262.500977"/>
</g>
<g fill="rgb(12.548828%, 10.195923%, 9.411621%)" fill-opacity="1">
<use xlink:href="#glyph-0-4" x="675.402695" y="262.500977"/>
</g>
<g fill="rgb(12.548828%, 10.195923%, 9.411621%)" fill-opacity="1">
<use xlink:href="#glyph-0-5" x="821.996992" y="262.500977"/>
</g>
<g fill="rgb(12.548828%, 10.195923%, 9.411621%)" fill-opacity="1">
<use xlink:href="#glyph-0-6" x="905.364063" y="262.500977"/>
</g>
<path fill-rule="nonzero" fill="rgb(100%, 96.861267%, 96.076965%)" fill-opacity="1" d="M 145.5 120.75 C 145.5 130.691406 137.441406 138.75 127.5 138.75 C 117.558594 138.75 109.5 130.691406 109.5 120.75 C 109.5 110.808594 117.558594 102.75 127.5 102.75 C 137.441406 102.75 145.5 110.808594 145.5 120.75 Z M 145.5 120.75 "/>
<path fill-rule="nonzero" fill="rgb(100%, 96.861267%, 96.076965%)" fill-opacity="1" d="M 171 120 C 171 134.082031 159.582031 145.5 145.5 145.5 C 131.417969 145.5 120 134.082031 120 120 C 120 105.917969 131.417969 94.5 145.5 94.5 C 159.582031 94.5 171 105.917969 171 120 Z M 171 120 "/>
<path fill-rule="nonzero" fill="rgb(100%, 96.861267%, 96.076965%)" fill-opacity="1" d="M 183.75 120.75 C 183.75 131.933594 174.683594 141 163.5 141 C 152.316406 141 143.25 131.933594 143.25 120.75 C 143.25 109.566406 152.316406 100.5 163.5 100.5 C 174.683594 100.5 183.75 109.566406 183.75 120.75 Z M 183.75 120.75 "/>
</svg>
